# xmcd
#
# Track frame offsets:
#	150
#	14634
#	28297
#	40261
#	53032
#	64478
#	81955
#	94847
#	108121
#	123394
#	142307
#	158456
#	171081
#	189932
#	202943
#	215575
#	228424
#	246102
#	260899
#	280980
#	290961
#	306113
#	316977
#
# Disc length: 4473 seconds
#
# Revision: 1
# Processed by: cddbd v1.5.2PL0 Copyright (c) Steve Scherf et al.
# Submitted via: audiograbber 1.83.01
#
DISCID=5d117717
DTITLE=Western Heart - Western Heart 033 Western Heart
DYEAR=2003
DGENRE=
TTITLE0=Giving Old Memorie Away - Erin Hay
TTITLE1=When The River Runs Dry  - Paul Mateki
TTITLE2=Right In The Wrong Direction  - Tanya Dennis
TTITLE3=Texas Tea  - B. Jeff Stone
TTITLE4=In Care Of The Blues  - Rustie Blue
TTITLE5=Good Times Longhorn Charlie  - Aaron Noble
TTITLE6=Still Gonna Die - Joy Adams
TTITLE7=All About Love  - Dick Damron
TTITLE8=It´s To Late For Roses  - Paula James
TTITLE9=Battle Of Wounded Me  - Shayne Weems
TTITLE10=Heading Home For Texas - Don Mcray and Paul Mateki
TTITLE11=Failure Hasen´t Changed Me  - Ron Wayne Atwood
TTITLE12=I´ll Never Fall In Love Again  - Stevie Cee
TTITLE13=Just In Time  - Shane Worley
TTITLE14=Somwhere Between Hello And Goodbye  - Pamela Anton
TTITLE15=Victin Of Life´s Cirecumstances  - Michael Elvin Hunt
TTITLE16=Tell Me Why  - Richard Frankz
TTITLE17=Politically Incorrect Redneck  - Stan Anderson
TTITLE18=Honky Tonk Hero  - Penny Spencer
TTITLE19=Drema´s Song  - Tony Dzik
TTITLE20=She Looked Like An Angel  - Tony Pollen
TTITLE21=Don´t Stop To Shed A Tear  - Mike Runnels
TTITLE22=Another Night Alone - Jim Moulton
EXTD=
EXTT0=
EXTT1=
EXTT2=
EXTT3=
EXTT4=
EXTT5=
EXTT6=
EXTT7=
EXTT8=
EXTT9=
EXTT10=
EXTT11=
EXTT12=
EXTT13=
EXTT14=
EXTT15=
EXTT16=
EXTT17=
EXTT18=
EXTT19=
EXTT20=
EXTT21=
EXTT22=
PLAYORDER=
